# Blender v2.78 (sub 0) OBJ File: ''
# www.blender.org
mtllib BenchLP.mtl
o Cube
v -0.695913 0.922619 -1.677840
v 0.665296 0.922619 -1.677840
v -0.695913 0.933918 -2.034635
v 0.665296 0.933918 -2.034635
v -0.695913 0.742442 -2.005476
v -0.695913 0.558511 -1.581982
v 0.665296 0.558511 -1.581982
v -0.695912 0.736533 -1.381053
v 0.665296 0.736533 -1.381053
v 0.665296 0.922619 -1.358116
v -0.695913 1.247188 -1.358116
v 0.665296 1.247188 -1.358116
v 0.665296 0.922619 -0.817106
v 0.665296 1.247188 -0.817106
v 0.665296 0.922619 -1.080868
v -0.695913 0.922619 -1.080868
v 0.665296 0.201778 -0.817106
v -0.695913 0.100503 -1.213705
v -0.695913 0.100503 -0.684268
v 0.665296 0.100503 -0.684268
v 0.665296 0.100503 -1.213705
v -0.695913 0.001214 -1.213705
v -0.695913 0.922619 1.702127
v 0.665296 0.922619 1.702127
v 0.665296 1.247188 1.702127
v -0.695913 0.933918 2.058923
v 0.665296 0.742442 2.029764
v 0.665296 0.557188 1.825941
v -0.695913 0.922619 1.382404
v -0.695913 1.247188 1.382404
v 0.665296 0.922619 0.841394
v -0.695913 0.922619 0.841394
v 0.665296 1.247188 0.841394
v -0.695913 1.247188 1.105155
v 0.665296 0.922619 1.105155
v -0.695913 0.201778 1.105155
v 0.665296 0.201778 0.841394
v 0.665296 0.201778 1.105155
v -0.695913 0.100503 0.708556
v 0.665296 0.100503 0.708556
v -0.695913 0.001214 1.237993
v -0.695913 0.001214 0.708556
v -0.695913 1.247188 -1.677840
v 0.665296 1.247188 -1.677840
v 0.665296 1.153885 -1.917694
v -0.695913 1.153885 -1.917694
v 0.665296 0.742442 -2.005476
v -0.695913 0.557188 -1.801654
v 0.665296 0.557188 -1.801654
v -0.695913 0.922619 -1.358116
v -0.695913 1.247188 -1.080868
v -0.695913 1.247188 0.841394
v -0.695913 1.247188 -0.817106
v 0.665296 1.247188 -1.080868
v -0.695913 0.922619 -0.817106
v 0.665296 0.201778 -1.080868
v -0.695913 0.201778 -0.817106
v -0.695913 0.201778 -1.080868
v -0.695913 0.001214 -0.684268
v 0.665296 0.001214 -0.684268
v 0.665296 0.001214 -1.213705
v -0.695913 1.247188 1.702127
v 0.665296 1.153885 1.941982
v -0.695913 1.153885 1.941982
v 0.665296 0.933918 2.058923
v -0.695913 0.742442 2.029764
v -0.695913 0.557188 1.825941
v 0.665296 0.558511 1.606270
v -0.695913 0.558511 1.606270
v 0.665296 0.736533 1.405340
v -0.695912 0.736533 1.405340
v 0.665296 0.922619 1.382404
v 0.665296 1.247188 1.382404
v 0.665296 1.247188 1.105155
v -0.695913 0.922619 1.105155
v -0.695913 0.201778 0.841394
v 0.665296 0.100503 1.237993
v -0.695913 0.100503 1.237993
v 0.665296 0.001214 0.708556
v 0.665296 0.001214 1.237993
v 0.665296 1.247188 -1.677840
v 0.665296 1.153885 -1.917694
v -0.695913 0.933918 -2.034635
v -0.695913 1.153885 -1.917694
v 0.665296 0.742442 -2.005476
v 0.665296 0.557188 -1.801654
v 0.665296 0.557188 -1.801654
v -0.695912 0.736533 -1.381053
v -0.695913 0.558511 -1.581982
v -0.695913 0.922619 -1.358116
v -0.695913 0.922619 -1.358116
v -0.695913 1.247188 0.841394
v -0.695913 1.247188 -0.817106
v 0.665296 0.201778 -0.817106
v 0.665296 0.100503 -0.684268
v -0.695913 0.100503 -0.684268
v -0.695913 0.001214 -0.684268
v -0.695913 0.001214 -0.684268
v 0.665296 1.153885 1.941982
v 0.665296 0.933918 2.058923
v -0.695913 0.933918 2.058923
v -0.695913 1.153885 1.941982
v -0.695913 0.742442 2.029764
v -0.695913 0.557188 1.825941
v -0.695913 0.557188 1.825941
v 0.665296 1.247188 1.105155
v 0.665296 1.247188 0.841394
v 0.665296 0.201778 0.841394
v 0.665296 0.100503 0.708556
v -0.695913 0.557188 -1.801654
v -0.695913 0.557188 -1.801654
v -0.695913 1.247188 -1.080868
v 0.665296 0.922619 -1.080868
v 0.665296 0.922619 -1.080868
v -0.695913 0.922619 -1.080868
v -0.695913 0.922619 -1.080868
v 0.665296 0.922619 0.841394
v 0.665296 0.922619 0.841394
v -0.695913 0.922619 0.841394
v -0.695913 0.922619 0.841394
v 0.665296 0.001214 -0.684268
v 0.665296 0.001214 -0.684268
v -0.695913 1.247188 1.105155
v -0.695913 1.247188 1.382404
v 0.665296 0.742442 2.029764
v 0.665296 0.557188 1.825941
v 0.665296 0.557188 1.825941
v -0.695912 0.736533 1.405340
v -0.695913 0.558511 1.606270
v 0.665296 0.736533 1.405340
v 0.665296 0.922619 1.382404
v 0.665296 0.922619 1.382404
v 0.665296 1.247188 1.382404
v 0.665296 0.201778 1.105155
v 0.665296 0.922619 1.105155
v 0.665296 0.922619 1.105155
v -0.695913 0.001214 1.237993
v -0.695913 0.001214 1.237993
v -0.695913 0.100503 1.237993
v -0.695913 0.001214 0.708556
v -0.695913 0.001214 0.708556
v -0.695913 1.247188 -1.358116
v -0.695913 1.247188 -1.677840
v 0.665296 0.933918 -2.034635
v -0.695913 0.742442 -2.005476
v 0.665296 0.558511 -1.581982
v 0.665296 0.736533 -1.381053
v 0.665296 0.922619 -1.358116
v 0.665296 0.922619 -1.358116
v 0.665296 1.247188 -1.358116
v 0.665296 0.922619 -0.817106
v 0.665296 0.922619 -0.817106
v 0.665296 1.247188 -1.080868
v 0.665296 1.247188 -0.817106
v -0.695913 0.922619 -0.817106
v -0.695913 0.922619 -0.817106
v 0.665296 0.201778 -1.080868
v -0.695913 0.201778 -0.817106
v -0.695913 0.201778 -1.080868
v 0.665296 0.100503 -1.213705
v -0.695913 0.100503 -1.213705
v -0.695913 0.001214 -1.213705
v -0.695913 0.001214 -1.213705
v 0.665296 0.001214 -1.213705
v 0.665296 0.001214 -1.213705
v -0.695913 1.247188 1.702127
v 0.665296 1.247188 1.702127
v 0.665296 0.558511 1.606270
v -0.695913 0.922619 1.382404
v -0.695913 0.922619 1.382404
v -0.695913 0.922619 1.105155
v -0.695913 0.922619 1.105155
v -0.695913 0.201778 0.841394
v -0.695913 0.201778 1.105155
v 0.665296 0.100503 1.237993
v -0.695913 0.100503 0.708556
v 0.665296 0.001214 0.708556
v 0.665296 0.001214 0.708556
v 0.665296 0.001214 1.237993
v 0.665296 0.001214 1.237993
vt 0.7387 0.4608
vt 0.8437 0.4686
vt 0.8439 0.5386
vt 0.7389 0.5308
vt 0.5969 0.4680
vt 0.5969 0.6066
vt 0.5564 0.6066
vt 0.5564 0.4680
vt 0.4625 0.6066
vt 0.4625 0.4680
vt 0.8139 0.5889
vt 0.8277 0.0800
vt 0.7228 0.0850
vt 0.7953 0.0290
vt 0.7232 0.0068
vt 0.6616 0.0161
vt 0.7428 0.6092
vt 0.3807 0.6066
vt 0.3807 0.4680
vt 0.6808 0.5982
vt 0.3015 0.4680
vt 0.3015 0.6066
vt 0.2948 0.6066
vt 0.2948 0.4680
vt 0.3015 0.6066
vt 0.3015 0.4680
vt 0.6208 0.5491
vt 0.6037 0.0635
vt 0.6061 0.1115
vt 0.6655 0.1528
vt 0.6211 0.5011
vt 0.2186 0.4680
vt 0.2186 0.6066
vt 0.1392 0.6066
vt 0.1392 0.4680
vt 0.6786 0.4614
vt 0.7258 0.1549
vt 0.6066 0.4680
vt 0.6066 0.6066
vt 0.8306 0.1499
vt 0.1777 0.9330
vt 0.1775 0.9931
vt 0.1298 0.9930
vt 0.1300 0.9328
vt 0.3897 0.6837
vt 0.6751 0.6837
vt 0.6751 0.7438
vt 0.3897 0.7438
vt 0.8974 0.9501
vt 0.7610 0.9170
vt 0.7706 0.8774
vt 0.9069 0.9105
vt 0.3443 0.7438
vt 0.3897 0.8774
vt 0.3443 0.8774
vt 0.3443 0.6837
vt 0.2231 0.9331
vt 0.5086 0.9340
vt 0.5084 0.9941
vt 0.2229 0.9933
vt 0.2965 0.7438
vt 0.2965 0.6837
vt 0.4166 0.4180
vt 0.2781 0.4180
vt 0.2781 0.4096
vt 0.4166 0.4096
vt 0.8873 0.9918
vt 0.7510 0.9586
vt 0.4125 0.8962
vt 0.3214 0.8962
vt 0.0002 0.4438
vt 0.1387 0.4438
vt 0.1387 0.7514
vt 0.0002 0.7514
vt 0.1781 0.7994
vt 0.2235 0.7995
vt 0.4166 0.4096
vt 0.2781 0.4096
vt 0.2781 0.1020
vt 0.4166 0.1020
vt 0.4166 0.0586
vt 0.2781 0.0586
vt 0.2781 0.0163
vt 0.4166 0.0163
vt 0.1553 0.7806
vt 0.2464 0.7808
vt 0.1387 0.7948
vt 0.0002 0.7948
vt 0.4166 0.0163
vt 0.2781 0.0163
vt 0.2781 0.0002
vt 0.4166 0.0002
vt 0.1387 0.8372
vt 0.0002 0.8372
vt 0.4125 0.9146
vt 0.3214 0.9146
vt 0.1553 0.7622
vt 0.2465 0.7625
vt 0.7321 0.3060
vt 0.7292 0.2361
vt 0.8340 0.2311
vt 0.8369 0.3011
vt 0.1392 0.4579
vt 0.1392 0.4175
vt 0.2777 0.4175
vt 0.2777 0.4579
vt 0.1392 0.3235
vt 0.2777 0.3235
vt 0.8017 0.1801
vt 0.8433 0.3789
vt 0.8133 0.4316
vt 0.7384 0.3795
vt 0.7423 0.4576
vt 0.6804 0.4516
vt 0.7296 0.1579
vt 0.1392 0.2418
vt 0.2777 0.2418
vt 0.6680 0.1672
vt 0.1392 0.1625
vt 0.1392 0.1558
vt 0.2777 0.1558
vt 0.2777 0.1625
vt 0.1392 0.1625
vt 0.2777 0.1625
vt 0.6100 0.2146
vt 0.6203 0.4073
vt 0.6206 0.3592
vt 0.6780 0.3149
vt 0.6125 0.2627
vt 0.1392 0.0796
vt 0.1392 0.0002
vt 0.2777 0.0002
vt 0.2777 0.0796
vt 0.6718 0.3039
vt 0.7381 0.3095
vt 0.2777 0.4676
vt 0.1392 0.4676
vt 0.8431 0.3089
vt 0.5540 0.9341
vt 0.6017 0.9343
vt 0.6015 0.9944
vt 0.5538 0.9943
vt 0.0002 0.4438
vt 0.0002 0.3936
vt 0.1387 0.3936
vt 0.1387 0.4438
vt 0.9766 0.6218
vt 0.9670 0.6615
vt 0.8307 0.6283
vt 0.8403 0.5887
vt 0.7205 0.7438
vt 0.7205 0.8774
vt 0.6751 0.8774
vt 0.7205 0.6837
vt 0.7683 0.7438
vt 0.7683 0.6837
vt 0.4170 0.4180
vt 0.4170 0.4096
vt 0.5555 0.4096
vt 0.5555 0.4180
vt 0.9866 0.5802
vt 0.8503 0.5471
vt 0.7434 0.8962
vt 0.6523 0.8962
vt 0.0002 0.3936
vt 0.0002 0.0860
vt 0.1387 0.0860
vt 0.1387 0.3936
vt 0.5090 0.8004
vt 0.5544 0.8005
vt 0.4170 0.4096
vt 0.4170 0.1020
vt 0.5555 0.1020
vt 0.5555 0.4096
vt 0.4170 0.0586
vt 0.4170 0.0163
vt 0.5555 0.0163
vt 0.5555 0.0586
vt 0.4862 0.7816
vt 0.5773 0.7818
vt 0.0002 0.0426
vt 0.1387 0.0426
vt 0.4170 0.0163
vt 0.4170 0.0002
vt 0.5555 0.0002
vt 0.5555 0.0163
vt 0.0002 0.0002
vt 0.1387 0.0002
vt 0.7434 0.9146
vt 0.6523 0.9146
vt 0.4862 0.7632
vt 0.5774 0.7634
vn -1.0000 0.0000 0.0000
vn 0.0000 0.9828 -0.1844
vn 0.0000 0.7474 -0.6643
vn 0.0000 0.1679 -0.9858
vn 1.0000 0.0000 0.0000
vn 0.0000 -0.4725 -0.8813
vn 0.0000 -1.0000 0.0060
vn 0.0000 -0.9339 0.3574
vn 0.0000 -0.7400 -0.6726
vn 0.0000 -0.4655 0.8850
vn 0.0000 -0.1223 0.9925
vn 0.0000 1.0000 0.0000
vn 0.0000 -1.0000 0.0000
vn 0.0000 0.0000 1.0000
vn 0.0000 0.4437 0.8962
vn 0.0000 0.0000 -1.0000
vn 0.0000 0.4437 -0.8962
vn 0.0000 0.9828 0.1844
vn 0.0000 0.7474 0.6643
vn 0.0000 0.1679 0.9858
vn 0.0000 -0.4725 0.8813
vn 0.0000 -1.0000 -0.0060
vn 0.0000 -0.9339 -0.3574
vn 0.0000 -0.7400 0.6726
vn 0.0000 -0.4655 -0.8850
vn 0.0000 -0.1223 -0.9925
usemtl Material.002
s 1
f 91/1/1 142/2/1 143/3/1 1/4/1
f 43/5/2 81/6/2 82/7/3 84/8/3
f 84/8/3 82/7/3 4/9/4 83/10/4
f 1/4/1 143/3/1 46/11/1
f 44/12/5 2/13/5 45/14/5
f 144/15/5 2/13/5 47/16/5
f 1/4/1 46/11/1 3/17/1
f 45/14/5 2/13/5 144/15/5
f 83/10/4 4/9/4 85/18/6 5/19/6
f 1/4/1 3/17/1 145/20/1
f 110/21/7 87/22/7 7/23/8 89/24/8
f 5/19/6 85/18/6 86/25/9 111/26/9
f 1/4/1 145/20/1 48/27/1
f 47/16/5 2/13/5 49/28/5
f 146/29/5 2/13/5 9/30/5
f 1/4/1 48/27/1 6/31/1
f 49/28/5 2/13/5 146/29/5
f 88/32/10 147/33/10 149/34/11 90/35/11
f 89/24/8 7/23/8 147/33/10 88/32/10
f 1/4/1 6/31/1 8/36/1
f 1/4/1 8/36/1 91/1/1
f 9/30/5 2/13/5 148/37/5
f 81/6/2 43/5/2 11/38/12 150/39/12
f 2/13/5 44/12/5 12/40/5 148/37/5
f 116/41/1 51/42/1 142/43/1 91/44/1
f 14/45/5 33/46/5 118/47/5 151/48/5
f 153/49/12 112/50/12 53/51/12 154/52/12
f 114/53/5 151/48/5 94/54/5 157/55/5
f 114/53/5 54/56/5 14/45/5 151/48/5
f 155/57/1 120/58/1 92/59/1 93/60/1
f 148/61/5 12/62/5 54/56/5 114/53/5
f 50/63/13 10/64/13 113/65/13 115/66/13
f 150/67/12 11/68/12 112/50/12 153/49/12
f 155/57/1 93/60/1 51/42/1 116/41/1
f 157/55/5 94/54/5 95/69/5 21/70/5
f 152/71/14 156/72/14 57/73/15 17/74/15
f 155/57/1 116/41/1 159/75/1 158/76/1
f 16/77/16 15/78/16 56/79/17 58/80/17
f 161/81/17 160/82/17 165/83/16 163/84/16
f 158/76/1 159/75/1 18/85/1 19/86/1
f 58/80/17 56/79/17 160/82/17 161/81/17
f 17/74/15 57/73/15 96/87/15 20/88/15
f 162/89/13 164/90/13 121/91/13 98/92/13
f 20/88/15 96/87/15 97/93/14 122/94/14
f 21/70/5 95/69/5 60/95/5 61/96/5
f 19/86/1 18/85/1 22/97/1 59/98/1
f 169/99/1 23/100/1 166/101/1 30/102/1
f 62/103/18 102/104/19 99/105/19 25/106/18
f 102/104/19 101/107/20 100/108/20 99/105/19
f 23/100/1 64/109/1 166/101/1
f 167/110/5 63/111/5 24/112/5
f 65/113/5 125/114/5 24/112/5
f 23/100/1 26/115/1 64/109/1
f 63/111/5 65/113/5 24/112/5
f 101/107/20 103/116/21 27/117/21 100/108/20
f 23/100/1 66/118/1 26/115/1
f 105/119/22 69/120/23 168/121/23 28/122/22
f 103/116/21 104/123/24 127/124/24 27/117/21
f 23/100/1 67/125/1 66/118/1
f 125/114/5 126/126/5 24/112/5
f 68/127/5 130/128/5 24/112/5
f 23/100/1 129/129/1 67/125/1
f 126/126/5 68/127/5 24/112/5
f 71/130/25 170/131/26 132/132/26 70/133/25
f 69/120/23 71/130/25 70/133/25 168/121/23
f 23/100/1 128/134/1 129/129/1
f 23/100/1 169/99/1 128/134/1
f 130/128/5 131/135/5 24/112/5
f 25/106/18 133/136/12 124/137/12 62/103/18
f 24/112/5 131/135/5 73/138/5 167/110/5
f 171/139/1 169/140/1 30/141/1 34/142/1
f 13/143/13 117/144/13 119/145/13 55/146/13
f 106/147/12 107/148/12 52/149/12 123/150/12
f 135/151/5 38/152/5 108/153/5 118/47/5
f 135/151/5 118/47/5 33/46/5 74/154/5
f 53/51/12 52/149/12 107/148/12 154/52/12
f 131/155/5 135/151/5 74/154/5 73/156/5
f 29/157/13 172/158/13 136/159/13 72/160/13
f 133/161/12 106/147/12 123/150/12 124/162/12
f 120/58/1 171/139/1 34/142/1 92/59/1
f 38/152/5 175/163/5 109/164/5 108/153/5
f 31/165/16 37/166/17 76/167/17 32/168/16
f 120/58/1 173/169/1 36/170/1 171/139/1
f 75/171/14 174/172/15 134/173/15 35/174/14
f 139/175/15 137/176/14 180/177/14 77/178/15
f 173/169/1 176/179/1 78/180/1 36/170/1
f 174/172/15 139/175/15 77/178/15 134/173/15
f 37/166/17 40/181/17 39/182/17 76/167/17
f 138/183/13 140/184/13 177/185/13 179/186/13
f 40/181/17 178/187/16 141/188/16 39/182/17
f 175/163/5 80/189/5 79/190/5 109/164/5
f 176/179/1 42/191/1 41/192/1 78/180/1
