# Blender v2.78 (sub 0) OBJ File: ''
# www.blender.org
mtllib FlowerGrassTall.mtl
o Plane.003
v -1.000000 0.013166 0.000000
v 1.000000 0.013166 0.000000
v 1.133151 3.558784 0.028233
v -1.464928 3.755712 -0.031939
v 2.659826 0.013167 0.778011
v 1.358592 0.013166 -0.740802
v 1.358592 3.854859 -0.740803
v 2.809614 3.893810 0.799119
v 2.768615 0.013166 -0.632013
v 1.249803 0.013167 0.669221
v 1.249803 3.854859 0.669221
v 3.103428 3.453979 -0.878540
v -0.063176 1.907757 0.842814
v 0.000000 1.934013 -1.000000
v -0.092828 3.854822 -1.395991
v -0.082215 3.831689 1.267374
v 0.000000 0.013167 1.000000
v 0.000000 0.013167 -1.000000
v -1.000000 0.013166 0.000000
v -1.464928 3.755712 -0.031939
v 1.133151 3.558784 0.028233
v 1.000000 0.013166 0.000000
v 2.659826 0.013167 0.778011
v 2.809614 3.893810 0.799119
v 1.358592 3.854859 -0.740803
v 1.358592 0.013166 -0.740802
v 2.768615 0.013166 -0.632013
v 3.103428 3.453979 -0.878540
v 1.249803 3.854859 0.669221
v 1.249803 0.013167 0.669221
v -0.063176 1.907757 0.842814
v -0.082215 3.831689 1.267374
v -0.092828 3.854822 -1.395991
v 0.000000 1.934013 -1.000000
v 0.000000 0.013167 1.000000
v 0.000000 0.013167 -1.000000
v 0.884084 0.013166 1.692418
v 0.816038 0.013166 -0.306424
v 0.839724 3.558784 -0.440459
v 0.924520 3.715094 1.939933
v 1.537126 0.013167 -1.991760
v 0.063465 0.013166 -0.639605
v 0.063464 3.854859 -0.639605
v 1.919627 3.883296 -2.400810
v 0.124218 0.013166 -2.052513
v 1.476373 0.013167 -0.578852
v 1.476372 3.854859 -0.578851
v 0.124217 3.854859 -2.052513
v 1.694537 1.907757 0.727461
v -0.149360 1.934013 0.727020
v -0.541964 3.854822 0.833267
v 2.184805 3.848671 0.741248
v 1.849482 0.013167 0.658974
v -0.149360 0.013167 0.727020
v 0.884084 0.013166 1.692418
v 0.924520 3.715094 1.939933
v 0.839724 3.558784 -0.440459
v 0.816038 0.013166 -0.306424
v 1.537126 0.013167 -1.991760
v 1.919627 3.883296 -2.400810
v 0.063464 3.854859 -0.639605
v 0.063465 0.013166 -0.639605
v 0.124218 0.013166 -2.052513
v 0.124217 3.854859 -2.052513
v 1.476372 3.854859 -0.578851
v 1.476373 0.013167 -0.578852
v 1.694537 1.907757 0.727461
v 2.184805 3.848671 0.741248
v -0.541964 3.854822 0.833267
v -0.149360 1.934013 0.727020
v 1.849482 0.013167 0.658974
v -0.149360 0.013167 0.727020
v 1.640153 0.051413 -0.699376
v 0.166491 0.051412 0.652780
v 0.166490 3.893105 0.652780
v 1.640152 3.893105 -0.699376
v 0.227244 0.051412 -0.760129
v 1.579400 0.051413 0.713533
v 1.579399 3.893105 0.713533
v 0.227244 3.893105 -0.760128
v 1.640153 0.051413 -0.699376
v 1.640152 3.893105 -0.699376
v 0.166490 3.893105 0.652780
v 0.166491 0.051412 0.652780
v 0.227244 0.051412 -0.760129
v 0.227244 3.893105 -0.760128
v 1.579399 3.893105 0.713533
v 1.579400 0.051413 0.713533
vt 0.0001 0.0001
vt 0.9999 0.0001
vt 0.9999 0.9937
vt 0.0001 0.9937
vt 0.0001 0.0001
vt 0.9999 0.0001
vt 0.9999 0.9937
vt 0.0001 0.9937
vt 0.0001 0.0001
vt 0.9999 0.0001
vt 0.9999 0.9937
vt 0.0001 0.9937
vt 0.0001 0.5000
vt 0.9999 0.5000
vt 0.9999 0.9937
vt 0.0001 0.9937
vt 0.0001 0.0001
vt 0.9999 0.0001
vt 0.0001 0.0001
vt 0.0001 0.9937
vt 0.9999 0.9937
vt 0.9999 0.0001
vt 0.0001 0.0001
vt 0.0001 0.9937
vt 0.9999 0.9937
vt 0.9999 0.0001
vt 0.0001 0.0001
vt 0.0001 0.9937
vt 0.9999 0.9937
vt 0.9999 0.0001
vt 0.0001 0.5000
vt 0.0001 0.9937
vt 0.9999 0.9937
vt 0.9999 0.5000
vt 0.0001 0.0001
vt 0.9999 0.0001
vt 0.0001 0.0001
vt 0.9999 0.0001
vt 0.9999 0.9937
vt 0.0001 0.9937
vt 0.0001 0.0001
vt 0.9999 0.0001
vt 0.9999 0.9937
vt 0.0001 0.9937
vt 0.0001 0.0001
vt 0.9999 0.0001
vt 0.9999 0.9937
vt 0.0001 0.9937
vt 0.0001 0.5000
vt 0.9999 0.5000
vt 0.9999 0.9937
vt 0.0001 0.9937
vt 0.0001 0.0001
vt 0.9999 0.0001
vt 0.0001 0.0001
vt 0.0001 0.9937
vt 0.9999 0.9937
vt 0.9999 0.0001
vt 0.0001 0.0001
vt 0.0001 0.9937
vt 0.9999 0.9937
vt 0.9999 0.0001
vt 0.0001 0.0001
vt 0.0001 0.9937
vt 0.9999 0.9937
vt 0.9999 0.0001
vt 0.0001 0.5000
vt 0.0001 0.9937
vt 0.9999 0.9937
vt 0.9999 0.5000
vt 0.0001 0.0001
vt 0.9999 0.0001
vt 0.0001 0.0001
vt 0.9999 0.0001
vt 0.9999 0.9937
vt 0.0001 0.9937
vt 0.0001 0.0001
vt 0.9999 0.0001
vt 0.9999 0.9937
vt 0.0001 0.9937
vt 0.0001 0.0001
vt 0.0001 0.9937
vt 0.9999 0.9937
vt 0.9999 0.0001
vt 0.0001 0.0001
vt 0.0001 0.9937
vt 0.9999 0.9937
vt 0.9999 0.0001
vn -0.0131 -0.0001 0.9999
vn 0.7434 -0.0126 -0.6687
vn -0.6451 0.0038 -0.7641
vn 0.9997 0.0177 0.0172
vn 0.9997 0.0178 0.0168
vn 0.9995 0.0290 0.0120
vn 0.9997 0.0172 0.0166
vn 0.0131 0.0001 -0.9999
vn -0.7434 0.0126 0.6687
vn 0.6451 -0.0038 0.7641
vn -0.9997 -0.0177 -0.0172
vn -0.9995 -0.0290 -0.0120
vn -0.9997 -0.0178 -0.0168
vn -0.9997 -0.0172 -0.0166
vn 0.9994 -0.0083 -0.0346
vn -0.6829 -0.0049 -0.7305
vn -0.7368 -0.0000 0.6761
vn -0.0157 0.0191 -0.9997
vn -0.0161 0.0191 -0.9997
vn -0.0198 0.0316 -0.9993
vn -0.0175 0.0172 -0.9997
vn -0.9994 0.0083 0.0346
vn 0.6829 0.0049 0.7305
vn 0.7368 0.0000 -0.6761
vn 0.0158 -0.0190 0.9997
vn 0.0198 -0.0316 0.9993
vn 0.0161 -0.0191 0.9997
vn 0.0175 -0.0172 0.9997
vn -0.6761 -0.0000 -0.7368
vn 0.6761 0.0000 0.7368
usemtl None
s 1
f 1/1/1 2/2/1 3/3/1 4/4/1
f 5/5/2 6/6/2 7/7/2 8/8/2
f 9/9/3 10/10/3 11/11/3 12/12/3
f 13/13/4 14/14/5 15/15/6 16/16/6
f 17/17/7 18/18/7 14/14/5 13/13/4
f 19/19/8 20/20/8 21/21/8 22/22/8
f 23/23/9 24/24/9 25/25/9 26/26/9
f 27/27/10 28/28/10 29/29/10 30/30/10
f 31/31/11 32/32/12 33/33/12 34/34/13
f 35/35/14 31/31/11 34/34/13 36/36/14
f 37/37/15 38/38/15 39/39/15 40/40/15
f 41/41/16 42/42/16 43/43/16 44/44/16
f 45/45/17 46/46/17 47/47/17 48/48/17
f 49/49/18 50/50/19 51/51/20 52/52/20
f 53/53/21 54/54/21 50/50/19 49/49/18
f 55/55/22 56/56/22 57/57/22 58/58/22
f 59/59/23 60/60/23 61/61/23 62/62/23
f 63/63/24 64/64/24 65/65/24 66/66/24
f 67/67/25 68/68/26 69/69/26 70/70/27
f 71/71/28 67/67/25 70/70/27 72/72/28
f 73/73/29 74/74/29 75/75/29 76/76/29
f 77/77/17 78/78/17 79/79/17 80/80/17
f 81/81/30 82/82/30 83/83/30 84/84/30
f 85/85/24 86/86/24 87/87/24 88/88/24
