# Blender v2.78 (sub 0) OBJ File: ''
# www.blender.org
mtllib FlowerBrownTall.mtl
o Plane
v 0.025643 1.229531 -0.813358
v -0.056856 1.215039 0.586914
v -0.089788 2.843364 -0.929746
v -0.103730 2.534196 1.248924
v 0.037515 0.056603 -0.885565
v 0.022543 -0.130716 0.521072
v -0.364886 -0.134602 0.348418
v 0.637008 0.072617 -0.635050
v -0.730814 2.574248 0.739732
v 0.435746 2.815524 -0.405374
v -0.345621 -0.141067 -0.348015
v 0.627419 0.084561 0.660065
v -0.719650 2.560341 -0.768243
v 0.413315 2.823053 0.405521
v -0.493121 -0.141907 0.004139
v 0.906464 0.092829 0.003455
v -1.258578 2.408266 0.022418
v 0.703574 2.606394 0.019112
v 0.703574 2.606394 0.019112
v -1.258578 2.408266 0.022418
v 0.906464 0.092829 0.003455
v -0.493121 -0.141907 0.004139
v 0.413315 2.823053 0.405521
v -0.719650 2.560341 -0.768243
v 0.627419 0.084561 0.660065
v -0.345621 -0.141067 -0.348015
v 0.435746 2.815524 -0.405374
v -0.730814 2.574248 0.739732
v 0.637008 0.072617 -0.635050
v -0.364886 -0.134602 0.348418
v 0.022543 -0.130716 0.521072
v 0.037515 0.056603 -0.885565
v -0.103730 2.534196 1.248924
v -0.089788 2.843364 -0.929746
v -0.056856 1.215039 0.586914
v 0.025643 1.229531 -0.813358
vt 0.0001 0.0001
vt 0.9999 0.0001
vt 0.9999 0.5000
vt 0.0001 0.5000
vt 0.9999 0.9999
vt 0.0001 0.9999
vt 0.0001 0.0001
vt 0.9999 0.0001
vt 0.9999 0.9999
vt 0.0001 0.9999
vt 0.0001 0.0001
vt 0.9999 0.0001
vt 0.9999 0.9999
vt 0.0001 0.9999
vt 0.0001 0.0001
vt 0.9999 0.0001
vt 0.9999 0.9999
vt 0.0001 0.9999
vt 0.0001 0.0001
vt 0.0001 0.9999
vt 0.9999 0.9999
vt 0.9999 0.0001
vt 0.0001 0.0001
vt 0.0001 0.9999
vt 0.9999 0.9999
vt 0.9999 0.0001
vt 0.0001 0.0001
vt 0.0001 0.9999
vt 0.9999 0.9999
vt 0.9999 0.0001
vt 0.0001 0.5000
vt 0.0001 0.9999
vt 0.9999 0.9999
vt 0.9999 0.5000
vt 0.0001 0.0001
vt 0.9999 0.0001
vn 0.9987 0.0342 0.0371
vn 0.9983 0.0494 0.0314
vn 0.7014 -0.0082 0.7128
vn 0.0020 -0.0063 1.0000
vn -0.7204 0.0081 0.6935
vn -0.0020 0.0063 -1.0000
vn 0.7204 -0.0081 -0.6935
vn -0.7014 0.0082 -0.7128
vn -0.9983 -0.0494 -0.0314
vn -0.9987 -0.0342 -0.0371
usemtl None
s off
f 6/1/1 5/2/1 1/3/1 2/4/1
f 2/4/2 1/3/2 3/5/2 4/6/2
f 7/7/3 8/8/3 10/9/3 9/10/3
f 15/11/4 16/12/4 18/13/4 17/14/4
f 11/15/5 12/16/5 14/17/5 13/18/5
f 22/19/6 20/20/6 19/21/6 21/22/6
f 26/23/7 24/24/7 23/25/7 25/26/7
f 30/27/8 28/28/8 27/29/8 29/30/8
f 35/31/9 33/32/9 34/33/9 36/34/9
f 31/35/10 35/31/10 36/34/10 32/36/10
