# Blender v2.78 (sub 0) OBJ File: ''
# www.blender.org
mtllib ArcSingle.mtl
o Cube
v 0.017913 0.002373 0.955131
v 0.017913 3.998346 0.955131
v 0.017913 0.002373 -1.071060
v 0.017913 3.998346 -1.071060
v 0.936521 0.002373 0.955131
v 0.936521 3.998346 0.955131
v 0.936521 0.002373 -1.071060
v 0.936521 3.998346 -1.071060
v 0.266281 4.893776 0.955131
v 0.266281 4.893777 -1.071060
v 1.079738 4.373057 -1.071060
v 1.079739 4.373056 0.955130
v 0.880046 5.462584 0.955131
v 0.880046 5.462584 -1.071060
v 1.419243 4.637713 -1.071060
v 1.419243 4.637713 0.955130
v 1.683678 5.787340 0.955131
v 1.683678 5.787340 -1.071060
v 1.753056 4.787020 -1.071060
v 1.753056 4.787020 0.955131
v 2.309319 5.786479 0.955131
v 2.309319 5.786479 -1.071060
v 2.263299 4.786128 -1.071060
v 2.263299 4.786128 0.955131
v 3.224281 5.521199 0.955131
v 3.224281 5.521199 -1.071060
v 2.716762 4.671525 -1.071060
v 2.716762 4.671525 0.955131
v 3.740987 4.810661 0.955131
v 3.740986 4.810661 -1.071060
v 2.966774 4.366634 -1.071060
v 2.966774 4.366634 0.955131
v 3.965766 3.996014 0.955131
v 3.965765 3.996014 -1.071060
v 3.047159 3.994619 -1.071060
v 3.047159 3.994619 0.955131
v 3.970860 0.014184 0.955131
v 3.970860 0.014184 -1.071060
v 3.052254 0.012789 -1.071060
v 3.052254 0.012789 0.955131
vn -1.0000 0.0000 0.0000
vn 0.0000 0.0000 -1.0000
vn 1.0000 0.0000 0.0000
vn 0.0000 0.0000 1.0000
vn 0.0000 -1.0000 0.0000
vn 0.6148 -0.7887 -0.0000
vn 0.9341 -0.3570 -0.0000
vn -0.9636 0.2673 0.0000
vn 0.4083 -0.9128 -0.0000
vn -0.6797 0.7335 0.0000
vn -0.3747 0.9272 0.0000
vn -0.2450 -0.9695 -0.0000
vn -0.0017 -1.0000 -0.0000
vn 0.0014 1.0000 0.0000
vn 0.8088 0.5881 -0.0000
vn 0.2785 0.9604 0.0000
vn -0.7733 -0.6341 0.0000
vn -1.0000 -0.0013 0.0000
vn -0.9774 -0.2112 0.0000
vn 0.9640 0.2660 -0.0000
vn 0.0015 -1.0000 0.0000
vn 1.0000 0.0013 -0.0000
usemtl None
s off
f 1//1 2//1 4//1 3//1
f 3//2 4//2 8//2 7//2
f 7//3 8//3 6//3 5//3
f 5//4 6//4 2//4 1//4
f 3//5 7//5 5//5 1//5
f 2//4 6//4 12//4 9//4
f 12//6 11//6 15//6 16//6
f 8//2 4//2 10//2 11//2
f 6//7 8//7 11//7 12//7
f 4//8 2//8 9//8 10//8
f 16//9 15//9 19//9 20//9
f 10//10 9//10 13//10 14//10
f 9//4 12//4 16//4 13//4
f 11//2 10//2 14//2 15//2
f 17//4 20//4 24//4 21//4
f 14//11 13//11 17//11 18//11
f 13//4 16//4 20//4 17//4
f 15//2 14//2 18//2 19//2
f 24//12 23//12 27//12 28//12
f 19//2 18//2 22//2 23//2
f 20//13 19//13 23//13 24//13
f 18//14 17//14 21//14 22//14
f 26//15 25//15 29//15 30//15
f 22//16 21//16 25//16 26//16
f 21//4 24//4 28//4 25//4
f 23//2 22//2 26//2 27//2
f 29//4 32//4 36//4 33//4
f 25//4 28//4 32//4 29//4
f 27//2 26//2 30//2 31//2
f 28//17 27//17 31//17 32//17
f 36//18 35//18 39//18 40//18
f 31//2 30//2 34//2 35//2
f 32//19 31//19 35//19 36//19
f 30//20 29//20 33//20 34//20
f 39//21 38//21 37//21 40//21
f 34//22 33//22 37//22 38//22
f 33//4 36//4 40//4 37//4
f 35//2 34//2 38//2 39//2
