# Blender v2.78 (sub 0) OBJ File: ''
# www.blender.org
mtllib HandStatue.mtl
o ZBrush_defualt_group
v -0.452467 4.990561 0.691323
v 0.544463 4.963278 0.643375
v -0.223007 2.794347 0.615289
v -0.153417 3.642798 0.498106
v -0.480815 2.951293 0.589290
v -0.149060 1.089753 0.496193
v -0.750372 0.455514 0.262841
v -0.370650 0.464002 0.575030
v 0.137683 2.419186 0.372484
v 0.181823 1.224872 0.143080
v 0.743828 3.229398 0.198783
v -0.482140 4.226937 0.321065
v 0.342775 2.909504 0.295092
v 0.489294 4.353678 0.254511
v -0.293519 0.113305 0.180210
v -0.265957 0.629692 0.164258
v -1.045784 0.882126 -0.339474
v 0.545088 2.032335 -0.305151
v 0.065929 0.614063 0.158179
v -0.079361 5.780406 0.096264
v 0.473231 0.041171 -0.171522
v -0.982726 1.474570 -0.041390
v 0.756817 3.675708 -0.291358
v -0.618809 3.084227 -0.080700
v 0.776635 5.422782 0.005484
v -0.564113 5.455332 -0.237253
v 0.683463 5.102323 -0.152672
v -0.540690 4.864612 -0.187326
v 0.037990 2.761026 0.061286
v 1.000085 0.098377 -0.273007
v 0.707263 4.347431 -0.228868
v -0.954840 0.198289 -0.421073
v 0.570460 0.624371 -0.298316
v 0.002931 3.234482 -0.198003
v 0.622133 0.554643 -0.298439
v 0.606783 0.638188 -0.337255
v 0.584817 0.508227 -0.323966
v 0.584093 0.508018 -0.323337
v -0.125198 4.149144 -0.181060
v 0.945533 4.648992 -0.483453
v 0.609866 0.093397 -0.582932
v 0.525714 1.304809 -0.485071
v -0.193509 3.473666 -0.452661
v -0.501622 4.513623 -0.536739
v 0.327554 1.372231 -0.511913
v 0.633000 0.555197 -0.597100
v -0.674365 5.555827 -0.126446
v -0.637327 4.507368 -0.438616
v 0.531299 1.517097 -0.959731
v -0.800713 5.637860 -0.802942
v 1.715368 5.719536 -0.663866
v 1.365714 4.810198 -0.795740
v 0.459890 0.114741 -0.790402
v 2.065617 5.464825 -0.898690
v 1.298271 4.800283 -0.567652
v 2.371565 5.625102 -0.917343
v 1.713564 4.584917 -1.100162
v 2.527655 4.513695 -1.628908
v -0.799830 4.943848 -0.977060
v 0.255117 0.719595 -1.161894
v 2.615969 5.217138 -0.980105
v 2.109275 4.199794 -1.420898
v 2.058478 4.224860 -1.626989
v -1.062041 4.812428 -1.565113
v 0.239857 0.512382 -1.632652
v -1.637988 5.896883 -1.490313
v -1.891794 5.537360 -1.743181
v -1.228416 4.882221 -1.456397
v -1.326001 4.439877 -2.103008
v -1.381822 4.562871 -2.359129
v 0.580227 0.546171 -0.324517
v 0.579885 0.546871 -0.324653
v -1.761684 5.205903 -2.160292
v -1.169835 4.551026 -2.149202
v -1.525798 5.719091 -1.520626
v -0.930399 4.933144 -0.883499
v -1.104978 5.901732 -0.997937
v 0.729253 5.492062 -0.204364
v 1.143737 5.328493 -0.520226
v 1.544300 5.737786 -0.742977
v 2.246297 5.123211 -0.935064
v -0.581891 3.790383 -0.238883
v 0.272868 4.353949 -0.078087
v 0.486601 3.324199 -0.552393
v -0.694282 3.306011 0.115580
v -0.442385 2.461583 0.044853
v -0.920612 2.038123 -0.091604
v 0.424922 1.526422 -0.041546
v 0.149588 1.809814 -0.617747
v -0.104656 1.865665 0.211830
v -0.738465 0.250212 -0.323889
v -0.460251 0.459363 0.237132
v -0.850060 1.523423 -0.426042
v -0.600483 1.275825 0.002631
v 0.497941 0.528987 -0.185649
v 0.242678 1.149007 -0.133150
v 0.445991 0.617778 -1.249115
v 0.663229 0.134364 -1.163970
v -0.458918 1.628437 0.618563
v -0.408438 0.097933 1.194452
v 0.571478 5.450589 0.350453
v 0.584798 0.503965 -0.329388
v 0.583277 0.503172 -0.328026
vt 0.0461 0.5697
vt 0.1212 0.5596
vt 0.1065 0.5801
vt 0.5898 0.7395
vt 0.5843 0.7074
vt 0.5922 0.7032
vt 0.0920 0.1536
vt 0.0342 0.1253
vt 0.0784 0.0742
vt 0.3257 0.4402
vt 0.3724 0.5359
vt 0.2758 0.4234
vt 0.4838 0.7253
vt 0.4856 0.8321
vt 0.4413 0.7787
vt 0.1752 0.9529
vt 0.1853 0.9257
vt 0.1968 0.9752
vt 0.2832 0.3286
vt 0.3700 0.3667
vt 0.9576 0.6947
vt 0.9581 0.7080
vt 0.9477 0.6997
vt 0.9602 0.7978
vt 0.9595 0.8102
vt 0.9541 0.7965
vt 0.3777 0.1816
vt 0.2851 0.1851
vt 0.2928 0.0860
vt 0.8590 0.9546
vt 0.8685 0.9485
vt 0.8670 0.9667
vt 0.1442 0.9647
vt 0.1514 0.9623
vt 0.1463 0.9895
vt 0.5061 0.9610
vt 0.5055 0.9795
vt 0.4947 0.9326
vt 0.1176 0.7709
vt 0.0984 0.8476
vt 0.1025 0.7901
vt 0.8345 0.1631
vt 0.8154 0.1345
vt 0.8544 0.1098
vt 0.3097 0.2826
vt 0.3577 0.2855
vt 0.2948 0.2946
vt 0.2491 0.9593
vt 0.2491 0.9047
vt 0.2542 0.9077
vt 0.3835 0.4404
vt 0.4139 0.7343
vt 0.3994 0.7128
vt 0.4218 0.7321
vt 0.3741 0.1097
vt 0.3174 0.0101
vt 0.4158 0.0459
vt 0.3512 0.9315
vt 0.3463 0.9319
vt 0.3512 0.9197
vt 0.4372 0.1438
vt 0.4557 0.0863
vt 0.4831 0.1944
vt 0.1519 0.5842
vt 0.1510 0.5972
vt 0.1435 0.5884
vt 0.5513 0.0368
vt 0.4401 0.0602
vt 0.5577 0.0911
vt 0.5411 0.1389
vt 0.3292 0.9855
vt 0.3313 0.9642
vt 0.3388 0.9660
vt 0.9828 0.5164
vt 0.9793 0.4848
vt 0.9877 0.5004
vt 0.5886 0.2345
vt 0.5086 0.2479
vt 0.5714 0.2164
vt 0.4829 0.3002
vt 0.5813 0.3087
vt 0.5377 0.3817
vt 0.5108 0.0077
vt 0.5566 0.0167
vt 0.4944 0.4926
vt 0.4361 0.4077
vt 0.7933 0.2345
vt 0.7994 0.1776
vt 0.7984 0.2497
vt 0.7161 0.8867
vt 0.7277 0.8823
vt 0.7340 0.9488
vt 0.4719 0.2621
vt 0.6622 0.6352
vt 0.6571 0.6811
vt 0.6366 0.6459
vt 0.2947 0.5273
vt 0.0753 0.4310
vt 0.1343 0.4774
vt 0.0290 0.9178
vt 0.0263 0.9564
vt 0.0093 0.9528
vt 0.5988 0.7410
vt 0.6072 0.7154
vt 0.6300 0.7517
vt 0.0417 0.5889
vt 0.0644 0.6415
vt 0.0306 0.6225
vt 0.2501 0.2739
vt 0.2308 0.3800
vt 0.2101 0.1859
vt 0.1985 0.2217
vt 0.5452 0.7017
vt 0.5416 0.5862
vt 0.5677 0.5654
vt 0.6508 0.2685
vt 0.6259 0.2086
vt 0.6463 0.2059
vt 0.0643 0.7489
vt 0.0092 0.6707
vt 0.0886 0.2713
vt 0.1005 0.3239
vt 0.0495 0.3221
vt 0.0322 0.3569
vt 0.0689 0.3880
vt 0.6410 0.4633
vt 0.6720 0.3801
vt 0.6757 0.4653
vt 0.2182 0.3615
vt 0.8201 0.7574
vt 0.8561 0.8631
vt 0.8082 0.8451
vt 0.9355 0.3191
vt 0.9220 0.3240
vt 0.9218 0.2792
vt 0.9482 0.5718
vt 0.9384 0.5523
vt 0.9524 0.5290
vt 0.8334 0.5660
vt 0.8632 0.4604
vt 0.8789 0.5437
vt 0.8870 0.1720
vt 0.8739 0.2171
vt 0.8755 0.1282
vt 0.1313 0.0585
vt 0.1405 0.0045
vt 0.4651 0.8662
vt 0.4695 0.8564
vt 0.4762 0.8927
vt 0.8801 0.3271
vt 0.8370 0.3710
vt 0.8444 0.3187
vt 0.8188 0.4391
vt 0.4750 0.6447
vt 0.8513 0.7226
vt 0.8559 0.7970
vt 0.3904 0.9084
vt 0.3972 0.9342
vt 0.3675 0.9456
vt 0.5921 0.8207
vt 0.5844 0.8135
vt 0.5911 0.7836
vt 0.9207 0.8733
vt 0.9294 0.9144
vt 0.9134 0.9152
vt 0.8914 0.7288
vt 0.8997 0.7482
vt 0.8891 0.8353
vt 0.7905 0.6353
vt 0.7955 0.6841
vt 0.7990 0.8211
vt 0.9715 0.2604
vt 0.9603 0.2345
vt 0.9704 0.2422
vt 0.9551 0.3708
vt 0.9519 0.4046
vt 0.9397 0.3923
vt 0.9881 0.9401
vt 0.9933 0.9301
vt 0.9953 0.9490
vt 0.0991 0.2018
vt 0.2918 0.5793
vt 0.3061 0.5715
vt 0.2862 0.6822
vt 0.3287 0.5926
vt 0.9311 0.1167
vt 0.9430 0.1329
vt 0.9239 0.1531
vt 0.0735 0.9209
vt 0.0683 0.8936
vt 0.0791 0.8886
vt 0.6605 0.2747
vt 0.6656 0.2658
vt 0.6724 0.2752
vt 0.5348 0.7971
vt 0.5309 0.7659
vt 0.5352 0.7731
vt 0.5325 0.8884
vt 0.5371 0.8577
vt 0.5371 0.8893
vt 0.2221 0.9496
vt 0.2122 0.9286
vt 0.2347 0.9459
vt 0.3681 0.9807
vt 0.3723 0.9559
vt 0.3807 0.9773
vt 0.8968 0.8582
vt 0.9016 0.9220
vt 0.8893 0.9218
vt 0.9678 0.8258
vt 0.9838 0.8440
vt 0.9725 0.8741
vt 0.0167 0.1850
vt 0.0495 0.3113
vt 0.7321 0.7972
vt 0.7620 0.8560
vt 0.7188 0.8501
vt 0.0109 0.8883
vt 0.8357 0.2557
vt 0.8167 0.2541
vt 0.8477 0.2112
vt 0.5357 0.1587
vt 0.5466 0.1917
vt 0.3399 0.9220
vt 0.3293 0.9573
vt 0.3169 0.9354
vt 0.3438 0.9093
vt 0.3144 0.8628
vt 0.3397 0.8445
vt 0.3424 0.6455
vt 0.3497 0.6917
vt 0.3511 0.7553
vt 0.1230 0.2936
vt 0.1472 0.2661
vt 0.1547 0.3713
vt 0.7566 0.1191
vt 0.7840 0.0909
vt 0.7958 0.1467
vt 0.9785 0.7202
vt 0.9880 0.6973
vt 0.9911 0.7457
vt 0.7973 0.2880
vt 0.7678 0.4202
vt 0.7641 0.3016
vt 0.4583 0.2734
vt 0.4525 0.2744
vt 0.4553 0.2663
vt 0.6561 0.7063
vt 0.9291 0.9454
vt 0.9295 0.9290
vt 0.9347 0.9439
vt 0.7018 0.8312
vt 0.6980 0.8676
vt 0.6936 0.8061
vt 0.7018 0.7858
vt 0.7683 0.8937
vt 0.7703 0.9258
vt 0.7387 0.9036
vt 0.3780 0.3920
vt 0.3766 0.4028
vt 0.5512 0.4471
vt 0.9107 0.7727
vt 0.9249 0.7254
vt 0.9318 0.8039
vt 0.2016 0.5507
vt 0.2319 0.5962
vt 0.1789 0.5550
vt 0.8993 0.9569
vt 0.8946 0.9417
vt 0.9029 0.9367
vt 0.1328 0.5925
vt 0.0943 0.6428
vt 0.1212 0.5891
vt 0.3748 0.7501
vt 0.3985 0.7605
vt 0.3831 0.7775
vt 0.4966 0.9856
vt 0.8170 0.0632
vt 0.8232 0.0648
vt 0.5835 0.6318
vt 0.5884 0.6030
vt 0.5913 0.6084
vt 0.1163 0.8451
vt 0.1261 0.8271
vt 0.1345 0.8869
vt 0.4113 0.2409
vt 0.4006 0.0157
vt 0.8377 0.0814
vt 0.3907 0.3229
vt 0.8582 0.1958
vt 0.8584 0.2393
vt 0.8523 0.2390
vt 0.8527 0.1938
vt 0.3775 0.6811
vt 0.3930 0.7285
vt 0.5820 0.0508
vt 0.8069 0.8284
vt 0.8008 0.8285
vt 0.8047 0.8054
vt 0.9885 0.4589
vt 0.9529 0.8963
vt 0.9552 0.9550
vt 0.9418 0.9521
vt 0.4305 0.0812
vt 0.5514 0.5408
vt 0.4860 0.5321
vt 0.4285 0.4963
vt 0.4515 0.5117
vt 0.9543 0.8944
vt 0.9447 0.8267
vt 0.9588 0.8753
vt 0.4500 0.1888
vt 0.7083 0.9459
vt 0.2449 0.6417
vt 0.2355 0.7145
vt 0.2123 0.6105
vt 0.4056 0.6498
vt 0.7729 0.2577
vt 0.7445 0.1919
vt 0.7723 0.1740
vt 0.6596 0.2148
vt 0.6881 0.1966
vt 0.6954 0.2414
vt 0.6169 0.6720
vt 0.4553 0.9613
vt 0.4236 0.9701
vt 0.4296 0.9381
vt 0.6509 0.0916
vt 0.6946 0.0521
vt 0.6992 0.1574
vt 0.6354 0.8702
vt 0.5992 0.8574
vt 0.6272 0.8034
vt 0.1519 0.8226
vt 0.1746 0.7628
vt 0.1591 0.8951
vt 0.2790 0.9637
vt 0.2652 0.9220
vt 0.2801 0.9397
vt 0.1290 0.2522
vt 0.8226 0.8990
vt 0.8519 0.9316
vt 0.1124 0.2280
vt 0.1340 0.1638
vt 0.9256 0.0337
vt 0.9324 0.0634
vt 0.9295 0.1067
vt 0.8509 0.9854
vt 0.8401 0.9874
vt 0.8454 0.9743
vt 0.9661 0.6961
vt 0.9710 0.7202
vt 0.9639 0.7225
vt 0.9727 0.7699
vt 0.9942 0.1569
vt 0.9898 0.1891
vt 0.9879 0.1595
vt 0.8671 0.6879
vt 0.8232 0.6146
vt 0.8438 0.5978
vt 0.2434 0.3884
vt 0.2149 0.4495
vt 0.7561 0.4452
vt 0.7478 0.2636
vt 0.7536 0.2631
vt 0.7536 0.2741
vt 0.7451 0.2710
vt 0.7424 0.4504
vt 0.7266 0.4297
vt 0.7762 0.5760
vt 0.7029 0.2839
vt 0.6944 0.3788
vt 0.9081 0.8184
vt 0.5748 0.7634
vt 0.5798 0.8526
vt 0.5594 0.7395
vt 0.7139 0.6155
vt 0.8013 0.6144
vt 0.5660 0.9306
vt 0.5389 0.9050
vt 0.5625 0.8825
vt 0.1610 0.0105
vt 0.5321 0.8571
vt 0.0071 0.9586
vt 0.0075 0.9761
vt 0.0000 0.9622
vt 0.9904 0.2667
vt 0.9832 0.2443
vt 0.9902 0.2384
vt 0.6088 0.9748
vt 0.6028 0.9594
vt 0.6136 0.9635
vt 0.1211 0.8976
vt 0.1126 0.9653
vt 0.1030 0.9098
vt 0.2379 0.9065
vt 0.3435 0.8303
vt 0.2949 0.7852
vt 0.6041 0.1840
vt 0.6007 0.2156
vt 0.6846 0.7710
vt 0.7027 0.7608
vt 0.1601 0.6878
vt 0.1752 0.6279
vt 0.8049 0.2400
vt 0.8306 0.1933
vt 0.3234 0.8999
vn -0.5465 0.1807 0.8177
vn 0.6782 0.0728 0.7313
vn 0.5704 0.5537 0.6066
vn -0.0398 -0.2983 0.9536
vn 0.2370 -0.8161 -0.5270
vn 0.2466 0.3296 0.9113
vn 0.7388 -0.0721 0.6701
vn 0.4198 -0.1200 0.8996
vn 0.3347 -0.3474 0.8759
vn -0.6624 -0.6099 -0.4349
vn -0.9920 -0.0065 0.1258
vn -0.6574 0.7302 0.1857
vn -0.7791 -0.0246 -0.6264
vn 0.0761 -0.4194 -0.9046
vn 0.2430 -0.6259 -0.7410
vn 0.5060 0.0454 -0.8613
vn -0.3052 0.9472 -0.0982
vn -0.7572 -0.6302 0.1713
vn -0.1250 -0.3215 -0.9386
vn 0.6534 0.4357 -0.6190
vn 0.8768 -0.2816 -0.3897
vn 0.8410 -0.5410 -0.0107
vn -0.1761 -0.9824 0.0622
vn 0.8178 0.4707 -0.3310
vn -0.3554 -0.8620 0.3615
vn 0.6372 -0.7285 -0.2516
vn 0.6973 -0.5154 -0.4980
vn -0.5319 -0.6435 0.5504
vn -0.2607 0.9457 0.1939
vn -0.5394 0.1529 -0.8280
vn -0.9665 0.2514 0.0517
vn 0.5340 0.5319 -0.6572
vn 0.6763 0.4572 0.5776
vn -0.1465 0.8115 -0.5656
vn -0.3328 0.7505 -0.5708
vn -0.3197 0.3066 -0.8965
vn -0.5523 0.1186 -0.8251
vn -0.3255 -0.5520 -0.7677
vn 0.7845 -0.1469 -0.6024
vn 0.1013 -0.9311 0.3503
vn 0.4527 0.8839 0.1174
vn -0.7613 -0.6480 -0.0206
vn -0.6407 -0.2548 -0.7243
vn 0.3419 -0.3611 0.8675
vn -0.3872 -0.3548 -0.8509
vn 0.5104 -0.6514 0.5614
vn -0.3938 -0.8938 0.2145
vn -0.3360 -0.3201 -0.8858
vn 0.3436 0.6986 0.6276
vn 0.9608 -0.1389 0.2398
vn 0.2974 0.1298 -0.9459
vn -0.2348 0.6525 -0.7205
vn 0.0843 0.0005 0.9964
vn 0.8144 0.3128 -0.4887
vn -0.6521 -0.0240 -0.7578
vn -0.7339 0.3106 -0.6040
vn -0.2184 -0.1008 -0.9706
vn -0.9916 0.1025 0.0789
vn -0.4361 0.1319 0.8901
vn 0.8199 -0.1025 0.5632
vn 0.9873 0.0048 -0.1584
vn 0.2251 0.0743 -0.9715
vn -0.8548 0.1993 -0.4791
vn -0.1506 -0.4446 -0.8830
vn 0.4304 -0.1415 -0.8914
vn -0.9840 0.1779 -0.0067
vn 0.5624 -0.1169 0.8186
vn 0.4811 -0.1425 0.8650
vn 0.2585 0.2196 0.9407
vn 0.8495 -0.1927 0.4911
vn 0.9740 -0.2161 0.0677
vn -0.1818 -0.0226 -0.9831
vn -0.5314 -0.3740 -0.7601
vn -0.8909 -0.0795 -0.4472
vn -0.9229 -0.0085 0.3849
vn -0.5758 -0.5481 0.6066
vn -0.1788 -0.7542 -0.6318
vn 0.5858 -0.6715 -0.4538
vn 0.6836 -0.0282 -0.7292
vn -0.0251 0.1364 -0.9903
vn 0.7788 0.0459 0.6256
vn -0.1800 -0.8465 0.5010
vn 0.8397 -0.3508 0.4146
vn -0.9279 -0.3719 0.0245
vn 0.6287 0.4621 -0.6254
vn -0.7597 -0.3357 0.5569
vn 0.9787 0.2038 0.0220
vn -0.3136 -0.1959 -0.9291
vn -0.0174 -0.5110 0.8594
vn 0.7649 -0.6279 -0.1437
vn -0.2167 -0.0610 0.9743
vn 0.9703 -0.2082 0.1233
vn -0.0808 0.9915 0.1020
vn 0.9986 0.0126 0.0518
vn -0.5798 -0.4285 -0.6929
vn 0.9234 0.0354 0.3822
vn -0.4337 -0.6829 -0.5878
usemtl Material.001
s 1
f 1/1/1 2/2/2 101/3/3
f 100/4/4 15/5/5 8/6/6
f 10/7/7 6/8/8 19/9/9
f 28/10/10 12/11/11 47/12/12
f 96/13/13 41/14/14 16/15/15
f 41/16/14 96/17/13 46/18/16
f 77/19/17 76/20/18 47/12/12
f 70/21/19 75/22/20 74/23/21
f 74/24/21 64/25/22 69/26/23
f 64/27/22 75/28/20 50/29/24
f 48/30/25 44/31/26 28/32/10
f 44/33/26 48/34/25 59/35/27
f 76/36/18 68/37/28 59/38/27
f 66/39/29 73/40/30 67/41/31
f 66/42/29 67/43/31 68/44/28
f 66/45/29 68/46/28 77/47/17
f 47/48/12 50/49/24 77/50/17
f 48/51/25 28/10/10 47/12/12
f 47/52/12 26/53/32 50/54/24
f 59/55/27 26/56/32 44/57/26
f 25/58/33 78/59/34 101/60/3
f 80/61/35 54/62/36 79/63/37
f 63/64/38 58/65/39 62/66/40
f 63/67/38 54/62/36 56/68/41
f 57/69/42 52/70/43 54/62/36
f 81/71/44 57/72/42 62/73/40
f 40/74/45 52/75/43 55/76/46
f 31/77/47 27/78/48 40/79/45
f 25/80/33 31/81/47 55/82/46
f 56/68/41 58/83/39 63/84/38
f 55/82/46 81/85/44 51/86/49
f 51/87/49 56/88/41 80/89/35
f 27/90/48 25/91/33 14/92/50
f 79/63/37 27/78/48 78/93/34
f 83/94/51 39/95/52 12/96/11
f 47/12/12 12/11/11 1/97/1
f 4/98/53 14/99/50 2/2/2
f 23/100/54 83/101/51 14/102/50
f 24/103/55 82/104/56 43/105/57
f 12/106/11 85/107/58 5/108/59
f 11/109/60 18/110/61 23/111/54
f 84/112/62 23/111/54 18/110/61
f 89/113/63 34/114/64 84/115/62
f 86/116/65 24/117/55 43/118/57
f 85/107/58 87/119/66 5/120/59
f 9/121/67 13/122/68 3/123/69
f 5/124/59 3/123/69 13/122/68
f 13/122/68 4/125/53 5/124/59
f 88/126/70 42/127/71 18/128/61
f 89/129/63 84/112/62 18/110/61
f 90/130/72 86/131/65 29/132/73
f 17/133/74 22/134/75 87/135/66
f 7/136/76 92/137/77 8/138/6
f 91/139/78 94/140/79 92/141/77
f 87/142/66 24/143/55 93/144/80
f 95/145/81 19/9/9 21/146/82
f 95/147/81 33/148/83 10/149/7
f 86/150/65 93/151/80 24/152/55
f 94/140/79 93/153/80 86/150/65
f 16/15/15 90/154/72 96/13/13
f 94/155/79 86/156/65 90/130/72
f 96/157/13 45/158/84 46/159/16
f 96/160/13 90/161/72 29/162/73
f 49/163/85 89/164/63 18/165/61
f 60/166/86 97/167/87 45/168/84
f 65/169/88 60/170/86 89/171/63
f 53/172/89 97/173/87 60/174/86
f 53/175/89 65/176/88 98/177/90
f 10/178/7 42/179/71 88/180/70
f 88/181/70 9/121/67 10/7/7
f 3/182/69 5/183/59 99/184/91
f 87/185/66 99/184/91 5/183/59
f 41/186/14 46/187/16 95/188/81
f 30/189/92 41/190/14 95/191/81
f 30/192/92 21/193/82 41/194/14
f 46/195/16 45/196/84 42/197/71
f 16/198/15 21/199/82 19/200/9
f 6/201/8 8/202/6 16/203/15
f 16/204/15 15/205/5 92/206/77
f 100/207/4 8/208/6 92/209/77
f 92/210/77 7/211/76 91/212/78
f 99/213/91 9/121/67 3/214/69
f 23/215/54 39/216/52 83/217/51
f 11/218/60 23/100/54 14/102/50
f 25/219/33 101/220/3 14/221/50
f 79/63/37 52/222/43 40/223/45
f 54/62/36 52/70/43 79/63/37
f 12/224/11 5/225/59 4/226/53
f 7/227/76 6/228/8 99/229/91
f 99/184/91 87/230/66 22/231/75
f 22/231/75 17/232/74 99/184/91
f 13/233/68 18/234/61 11/235/60
f 19/9/9 95/145/81 10/7/7
f 101/236/3 78/237/34 20/238/93
f 27/239/48 31/240/47 25/241/33
f 34/242/64 89/243/63 29/244/73
f 33/245/83 36/246/94 35/247/95
f 39/248/52 43/105/57 82/104/56
f 36/249/94 10/250/7 33/251/83
f 75/252/20 66/253/29 77/254/17 50/255/24
f 34/256/64 43/257/57 84/258/62
f 59/259/27 48/260/25 76/20/18
f 57/261/42 81/85/44 55/82/46
f 61/262/96 58/263/39 56/264/41
f 64/27/22 50/29/24 59/55/27
f 97/265/87 98/266/90 65/267/88
f 70/268/19 74/269/21 69/270/23
f 69/271/23 73/272/30 70/273/19
f 69/274/23 64/275/22 68/276/28
f 64/277/22 59/38/27 68/37/28
f 73/278/30 69/279/23 67/43/31
f 73/280/30 66/281/29 75/282/20
f 73/283/30 75/284/20 70/285/19
f 75/28/20 64/27/22 74/286/21
f 48/51/25 47/12/12 76/20/18
f 44/57/26 26/56/32 28/287/10
f 68/44/28 67/43/31 69/288/23
f 77/19/17 68/289/28 76/20/18
f 25/290/33 51/291/49 80/292/35 78/293/34
f 59/55/27 50/29/24 26/56/32
f 20/294/93 26/53/32 47/295/12
f 54/62/36 63/296/38 57/69/42
f 63/297/38 62/298/40 57/299/42
f 55/76/46 52/75/43 57/300/42
f 55/301/46 31/302/47 40/303/45
f 80/61/35 56/304/41 54/62/36
f 58/305/39 61/306/96 81/85/44
f 81/85/44 56/307/41 51/86/49
f 56/307/41 81/85/44 61/308/96
f 81/309/44 62/310/40 58/311/39
f 80/61/35 79/63/37 78/312/34
f 25/80/33 55/82/46 51/86/49
f 79/63/37 40/79/45 27/78/48
f 14/92/50 83/313/51 27/90/48
f 27/314/48 83/315/51 78/316/34
f 78/317/34 26/53/32 20/294/93
f 78/318/34 28/319/10 26/320/32
f 83/321/51 12/322/11 28/323/10
f 39/95/52 82/324/56 12/96/11
f 1/325/1 101/326/3 20/327/93
f 20/328/93 47/329/12 1/330/1
f 1/1/1 4/98/53 2/2/2
f 4/98/53 11/235/60 14/99/50
f 82/331/56 85/332/58 12/333/11
f 12/334/11 4/335/53 1/336/1
f 4/337/53 13/338/68 11/339/60
f 13/233/68 88/340/70 18/234/61
f 34/341/64 29/132/73 43/342/57
f 86/131/65 43/342/57 29/132/73
f 13/122/68 9/343/67 88/344/70
f 85/345/58 24/346/55 87/347/66
f 32/348/97 91/349/78 7/350/76
f 32/351/97 17/352/74 91/353/78
f 93/354/80 91/353/78 17/352/74
f 91/139/78 93/153/80 94/140/79
f 17/355/74 87/356/66 93/357/80
f 94/358/79 16/359/15 92/360/77
f 42/361/71 49/362/85 18/110/61
f 89/243/63 45/363/84 29/244/73
f 90/130/72 16/359/15 94/358/79
f 36/364/94 33/365/83 95/366/81 46/367/16
f 29/244/73 45/368/84 96/369/13
f 60/370/86 45/363/84 89/243/63
f 42/127/71 97/371/87 49/372/85
f 45/168/84 97/167/87 42/373/71
f 49/374/85 65/375/88 89/376/63
f 65/267/88 49/362/85 97/265/87
f 53/377/89 60/370/86 65/378/88
f 53/379/89 98/380/90 97/381/87
f 99/213/91 10/7/7 9/121/67
f 99/213/91 6/8/8 10/7/7
f 21/146/82 30/382/92 95/145/81
f 21/199/82 16/198/15 41/383/14
f 46/384/16 10/385/7 36/386/94
f 46/387/16 42/388/71 10/389/7
f 19/390/9 6/391/8 16/392/15
f 15/393/5 100/394/4 92/395/77
f 15/396/5 16/203/15 8/202/6
f 17/232/74 32/397/97 7/398/76
f 82/399/56 24/117/55 85/400/58
f 43/105/57 39/248/52 84/401/62
f 39/248/52 23/402/54 84/401/62
f 28/403/10 78/404/34 83/315/51
f 101/220/3 2/405/2 14/406/50
f 7/398/76 99/184/91 17/232/74
f 7/227/76 8/407/6 6/228/8
l 71 72
l 37 38
l 103 102
