# Blender v2.78 (sub 0) OBJ File: ''
# www.blender.org
mtllib StairsLP.mtl
o Plane
v 7.562554 0.299059 3.379478
v 7.562554 -0.003561 3.379478
v 7.561859 -0.003558 -0.002747
v 7.562554 0.299060 2.697943
v 7.562554 0.893762 1.303470
v 7.562554 1.191113 0.595980
v 7.562554 1.191113 1.303470
v 7.562554 1.498717 -0.003849
v 7.562554 1.499813 0.595980
v 7.564696 0.596411 2.000706
v 7.564696 0.893762 2.000706
v 7.564696 0.596411 2.697943
v 7.996225 1.191115 1.303470
v 7.996225 1.498719 0.595980
v 7.998366 0.596413 2.697943
v 7.998366 0.893764 2.000706
v 7.996225 1.498719 -0.003849
v 7.996225 -0.003558 -0.002747
v 7.996225 -0.003559 3.379478
v 7.996225 0.299061 3.379478
v -7.978576 0.299061 3.379478
v -7.978576 -0.003559 3.379478
v -7.978576 -0.003558 -0.002747
v -7.978576 1.498719 -0.003849
v -7.980717 0.893764 2.000706
v -7.980717 0.596413 2.697943
v -7.978576 1.498719 0.595980
v -7.978576 1.191115 1.303470
v -7.547047 0.596411 2.697943
v -7.547047 0.893762 2.000706
v -7.547047 0.596411 2.000706
v -7.544905 1.499813 0.595980
v -7.544905 1.498717 -0.003849
v -7.544905 1.191113 1.303470
v -7.544905 1.191113 0.595980
v -7.544905 0.893762 1.303470
v -7.544905 0.299060 2.697943
v -7.544210 -0.003558 -0.002747
v -7.544905 -0.003561 3.379478
v -7.544905 0.299059 3.379478
vt 0.8939 0.0000
vt 0.9153 0.0000
vt 0.9153 0.0271
vt 0.8939 0.0271
vt 0.1999 1.0000
vt 0.1999 0.9729
vt 0.2514 0.9727
vt 0.2514 0.9999
vt 0.4901 0.0271
vt 0.2514 0.0272
vt 0.2514 0.0000
vt 0.4901 0.0000
vt 0.8271 0.4700
vt 0.8079 0.4626
vt 0.8271 0.4235
vt 0.7879 0.5637
vt 0.7879 0.5201
vt 0.8089 0.5637
vt 0.7879 0.6112
vt 0.8089 0.6112
vt 0.8089 0.6548
vt 0.0948 0.9999
vt 0.0948 0.9727
vt 0.1473 0.9729
vt 0.1473 1.0000
vt 0.4901 0.9725
vt 0.5961 0.9726
vt 0.5961 0.9997
vt 0.4901 0.9997
vt 0.7409 0.0000
vt 0.7409 0.9457
vt 0.6929 0.9457
vt 0.6929 0.0000
vt 0.4901 0.0272
vt 0.4901 0.0000
vt 0.5961 0.0000
vt 0.5961 0.0271
vt 0.2514 0.9725
vt 0.4901 0.9726
vt 0.0000 0.0001
vt 0.0413 0.0001
vt 0.0413 0.0273
vt 0.0000 0.0273
vt 0.7879 0.4795
vt 0.8079 0.4718
vt 0.8079 0.5201
vt 0.9790 0.9457
vt 0.9580 0.9457
vt 0.9580 0.0000
vt 0.9790 0.0000
vt 0.8939 0.9726
vt 0.9153 0.9726
vt 0.0948 0.0001
vt 0.0948 0.0273
vt 0.1999 0.0000
vt 0.1999 0.0271
vt 0.1473 0.0271
vt 0.1473 0.0000
vt 0.9580 0.0000
vt 0.9580 0.9457
vt 0.9370 0.9456
vt 0.9370 0.0001
vt 0.7879 0.6984
vt 0.8089 0.6548
vt 0.8089 0.6984
vt 0.7879 0.5710
vt 0.8072 0.5637
vt 0.8072 0.6112
vt 0.7879 0.0000
vt 0.7879 0.9455
vt 0.7409 0.9455
vt 0.7409 0.0000
vt 0.4901 0.9997
vt 0.2514 0.9997
vt 0.8072 0.6064
vt 0.8282 0.5637
vt 0.8282 0.6064
vt 0.2514 0.0001
vt 0.2514 0.0273
vt 0.8939 0.9997
vt 0.9153 0.9997
vt 0.7879 0.4641
vt 0.8079 0.4235
vt 0.8079 0.4718
vt 0.0000 0.9999
vt 0.0000 0.9727
vt 0.0413 0.9727
vt 0.0413 0.9999
vt 0.6448 0.0000
vt 0.6929 0.0001
vt 0.6929 0.9456
vt 0.6448 0.9457
vt 1.0000 0.0000
vt 1.0000 0.9455
vt 0.9790 0.9455
vt 0.9790 0.0000
vt 0.6448 0.9455
vt 0.5961 0.9455
vt 0.5961 0.0000
vt 0.6448 0.0000
vt 0.9153 0.9455
vt 0.9153 0.0000
vt 0.9370 0.0000
vt 0.9370 0.9455
vt 0.8726 0.2117
vt 0.8516 0.1691
vt 0.8939 0.0001
vt 0.8939 0.2117
vt 0.8306 0.1254
vt 0.8096 0.0818
vt 0.7879 0.0000
vt 0.7879 0.0375
vt 0.7879 0.4235
vt 0.7879 0.3859
vt 0.8096 0.3417
vt 0.8939 0.4234
vt 0.8306 0.2980
vt 0.8516 0.2544
vt 0.8726 0.2117
vt 0.8939 0.2117
vn -0.0000 0.0000 1.0000
vn -0.0000 0.9166 0.3999
vn 0.0000 -1.0000 -0.0000
vn -1.0000 0.0072 0.0000
vn -1.0000 0.0000 0.0000
vn -1.0000 0.0000 0.0031
vn -0.0000 0.9198 0.3923
vn 0.0000 -0.0007 -1.0000
vn 0.0000 1.0000 0.0000
vn -0.0013 1.0000 -0.0009
vn 1.0000 0.0000 0.0000
vn -0.0012 0.9168 0.3993
vn 1.0000 0.0000 0.0031
vn 1.0000 0.0072 0.0000
vn 0.0013 1.0000 -0.0009
vn 0.0012 0.9168 0.3993
vn 0.0000 1.0000 -0.0018
vn -1.0000 -0.0032 0.0003
vn -1.0000 -0.0012 -0.0005
vn -1.0000 0.0023 -0.0021
vn 1.0000 0.0023 -0.0021
vn 1.0000 -0.0012 -0.0005
vn 1.0000 -0.0032 0.0003
usemtl Material.001
s off
f 19/1/1 20/2/1 1/3/1 2/4/1
f 15/5/2 12/6/2 1/7/2 20/8/2
f 2/9/3 3/10/3 18/11/3 19/12/3
f 12/13/4 4/14/4 1/15/4
f 10/16/5 12/17/5 11/18/5
f 7/19/6 5/20/6 11/21/6
f 13/22/7 7/23/7 11/24/7 16/25/7
f 15/5/7 16/25/7 11/24/7 12/6/7
f 3/26/8 8/27/8 17/28/8 18/29/8
f 29/30/9 12/31/9 10/32/9 31/33/9
f 38/34/8 23/35/8 24/36/8 33/37/8
f 38/38/3 3/10/3 2/9/3 39/39/3
f 24/40/10 27/41/10 32/42/10 33/43/10
f 35/44/11 32/45/11 34/46/11
f 30/47/1 31/48/1 10/49/1 11/50/1
f 39/51/1 2/4/1 1/3/1 40/52/1
f 28/53/12 34/54/12 32/42/12 27/41/12
f 26/55/7 29/56/7 30/57/7 25/58/7
f 12/59/1 29/60/1 37/61/1 4/62/1
f 34/63/13 30/64/13 36/65/13
f 31/66/11 30/67/11 29/68/11
f 4/69/9 37/70/9 40/71/9 1/72/9
f 39/39/3 22/73/3 23/74/3 38/38/3
f 28/53/7 25/58/7 30/57/7 34/54/7
f 29/75/14 40/76/14 37/77/14
f 26/55/2 21/78/2 40/79/2 29/56/2
f 22/80/1 39/51/1 40/52/1 21/81/1
f 6/82/5 7/83/5 9/84/5
f 17/85/15 8/86/15 9/87/15 14/88/15
f 13/22/16 14/88/16 9/87/16 7/23/16
f 11/89/9 5/90/9 36/91/9 30/92/9
f 7/93/1 34/94/1 36/95/1 5/96/1
f 35/97/9 34/98/9 7/99/9 6/100/9
f 35/101/1 6/102/1 9/103/1 32/104/1
f 33/43/17 32/42/17 9/87/17 8/86/17
f 8/27/8 3/26/8 38/34/8 33/37/8
f 21/105/18 26/106/18 23/107/18 22/108/18
f 25/109/19 23/107/19 26/106/19
f 25/109/20 28/110/20 23/107/20
f 24/111/5 23/107/5 28/110/5 27/112/5
f 17/113/11 14/114/11 13/115/11 18/116/11
f 16/117/21 18/116/21 13/115/21
f 16/117/22 15/118/22 18/116/22
f 20/119/23 19/120/23 18/116/23 15/118/23
